<mxfile host="app.diagrams.net" modified="2024-02-14T15:48:21.111Z" agent="Mozilla/5.0 (Windows NT 10.0; Win64; x64) AppleWebKit/537.36 (KHTML, like Gecko) Chrome/121.0.0.0 Safari/537.36" etag="LwwwPhWLc9qTsqnrpDTB" version="23.1.4" type="github">
  <diagram id="C5RBs43oDa-KdzZeNtuy" name="Page-1">
    <mxGraphModel dx="1195" dy="643" grid="1" gridSize="10" guides="1" tooltips="1" connect="1" arrows="1" fold="1" page="1" pageScale="1" pageWidth="827" pageHeight="1169" math="0" shadow="0">
      <root>
        <mxCell id="WIyWlLk6GJQsqaUBKTNV-0" />
        <mxCell id="WIyWlLk6GJQsqaUBKTNV-1" parent="WIyWlLk6GJQsqaUBKTNV-0" />
        <mxCell id="4HSFIuYmJezgne_DqFVH-28" style="edgeStyle=orthogonalEdgeStyle;rounded=0;orthogonalLoop=1;jettySize=auto;html=1;exitX=0.5;exitY=1;exitDx=0;exitDy=0;entryX=0.5;entryY=0;entryDx=0;entryDy=0;" edge="1" parent="WIyWlLk6GJQsqaUBKTNV-1" source="4HSFIuYmJezgne_DqFVH-1" target="4HSFIuYmJezgne_DqFVH-22">
          <mxGeometry relative="1" as="geometry" />
        </mxCell>
        <mxCell id="4HSFIuYmJezgne_DqFVH-41" value="start game" style="edgeLabel;html=1;align=center;verticalAlign=middle;resizable=0;points=[];" vertex="1" connectable="0" parent="4HSFIuYmJezgne_DqFVH-28">
          <mxGeometry x="-0.3095" y="-2" relative="1" as="geometry">
            <mxPoint as="offset" />
          </mxGeometry>
        </mxCell>
        <mxCell id="4HSFIuYmJezgne_DqFVH-1" value="DesktopLauncher&lt;br&gt;Setup window" style="rounded=0;whiteSpace=wrap;html=1;" vertex="1" parent="WIyWlLk6GJQsqaUBKTNV-1">
          <mxGeometry x="354" width="120" height="60" as="geometry" />
        </mxCell>
        <mxCell id="4HSFIuYmJezgne_DqFVH-34" style="edgeStyle=orthogonalEdgeStyle;rounded=0;orthogonalLoop=1;jettySize=auto;html=1;exitX=0;exitY=0.5;exitDx=0;exitDy=0;" edge="1" parent="WIyWlLk6GJQsqaUBKTNV-1" source="4HSFIuYmJezgne_DqFVH-22" target="4HSFIuYmJezgne_DqFVH-23">
          <mxGeometry relative="1" as="geometry" />
        </mxCell>
        <mxCell id="4HSFIuYmJezgne_DqFVH-50" value="create map" style="edgeLabel;html=1;align=center;verticalAlign=middle;resizable=0;points=[];" vertex="1" connectable="0" parent="4HSFIuYmJezgne_DqFVH-34">
          <mxGeometry x="0.1692" y="-2" relative="1" as="geometry">
            <mxPoint x="2" y="37" as="offset" />
          </mxGeometry>
        </mxCell>
        <mxCell id="4HSFIuYmJezgne_DqFVH-37" style="edgeStyle=orthogonalEdgeStyle;rounded=0;orthogonalLoop=1;jettySize=auto;html=1;exitX=0.5;exitY=1;exitDx=0;exitDy=0;entryX=0.5;entryY=0;entryDx=0;entryDy=0;" edge="1" parent="WIyWlLk6GJQsqaUBKTNV-1" source="4HSFIuYmJezgne_DqFVH-22" target="4HSFIuYmJezgne_DqFVH-26">
          <mxGeometry relative="1" as="geometry" />
        </mxCell>
        <mxCell id="4HSFIuYmJezgne_DqFVH-49" value="Create player" style="edgeLabel;html=1;align=center;verticalAlign=middle;resizable=0;points=[];" vertex="1" connectable="0" parent="4HSFIuYmJezgne_DqFVH-37">
          <mxGeometry x="-0.098" y="-2" relative="1" as="geometry">
            <mxPoint as="offset" />
          </mxGeometry>
        </mxCell>
        <mxCell id="4HSFIuYmJezgne_DqFVH-61" style="edgeStyle=orthogonalEdgeStyle;rounded=0;orthogonalLoop=1;jettySize=auto;html=1;exitX=0;exitY=0.25;exitDx=0;exitDy=0;entryX=0.5;entryY=0;entryDx=0;entryDy=0;" edge="1" parent="WIyWlLk6GJQsqaUBKTNV-1" source="4HSFIuYmJezgne_DqFVH-22" target="4HSFIuYmJezgne_DqFVH-60">
          <mxGeometry relative="1" as="geometry" />
        </mxCell>
        <mxCell id="4HSFIuYmJezgne_DqFVH-64" value="create debug_text" style="edgeLabel;html=1;align=center;verticalAlign=middle;resizable=0;points=[];" vertex="1" connectable="0" parent="4HSFIuYmJezgne_DqFVH-61">
          <mxGeometry x="0.5174" relative="1" as="geometry">
            <mxPoint y="24" as="offset" />
          </mxGeometry>
        </mxCell>
        <mxCell id="4HSFIuYmJezgne_DqFVH-22" value="game.java" style="rounded=0;whiteSpace=wrap;html=1;" vertex="1" parent="WIyWlLk6GJQsqaUBKTNV-1">
          <mxGeometry x="354" y="120" width="120" height="60" as="geometry" />
        </mxCell>
        <mxCell id="4HSFIuYmJezgne_DqFVH-44" style="edgeStyle=orthogonalEdgeStyle;rounded=0;orthogonalLoop=1;jettySize=auto;html=1;exitX=0.5;exitY=1;exitDx=0;exitDy=0;entryX=0.25;entryY=0;entryDx=0;entryDy=0;" edge="1" parent="WIyWlLk6GJQsqaUBKTNV-1" source="4HSFIuYmJezgne_DqFVH-23" target="4HSFIuYmJezgne_DqFVH-27">
          <mxGeometry relative="1" as="geometry" />
        </mxCell>
        <mxCell id="4HSFIuYmJezgne_DqFVH-46" value="Render tiles" style="edgeLabel;html=1;align=center;verticalAlign=middle;resizable=0;points=[];" vertex="1" connectable="0" parent="4HSFIuYmJezgne_DqFVH-44">
          <mxGeometry x="0.1571" y="2" relative="1" as="geometry">
            <mxPoint x="-2" y="-15" as="offset" />
          </mxGeometry>
        </mxCell>
        <mxCell id="4HSFIuYmJezgne_DqFVH-23" value="MapGenerator.java" style="rounded=0;whiteSpace=wrap;html=1;" vertex="1" parent="WIyWlLk6GJQsqaUBKTNV-1">
          <mxGeometry x="160" y="250" width="120" height="60" as="geometry" />
        </mxCell>
        <mxCell id="4HSFIuYmJezgne_DqFVH-24" value="InputManager.java" style="rounded=0;whiteSpace=wrap;html=1;" vertex="1" parent="WIyWlLk6GJQsqaUBKTNV-1">
          <mxGeometry x="670" y="240" width="120" height="60" as="geometry" />
        </mxCell>
        <mxCell id="4HSFIuYmJezgne_DqFVH-40" style="edgeStyle=orthogonalEdgeStyle;rounded=0;orthogonalLoop=1;jettySize=auto;html=1;exitX=0.75;exitY=1;exitDx=0;exitDy=0;entryX=0.75;entryY=0;entryDx=0;entryDy=0;" edge="1" parent="WIyWlLk6GJQsqaUBKTNV-1" source="4HSFIuYmJezgne_DqFVH-26" target="4HSFIuYmJezgne_DqFVH-39">
          <mxGeometry relative="1" as="geometry" />
        </mxCell>
        <mxCell id="4HSFIuYmJezgne_DqFVH-56" value="Create items" style="edgeLabel;html=1;align=center;verticalAlign=middle;resizable=0;points=[];" vertex="1" connectable="0" parent="4HSFIuYmJezgne_DqFVH-40">
          <mxGeometry x="-0.2429" y="2" relative="1" as="geometry">
            <mxPoint as="offset" />
          </mxGeometry>
        </mxCell>
        <mxCell id="4HSFIuYmJezgne_DqFVH-43" style="edgeStyle=orthogonalEdgeStyle;rounded=0;orthogonalLoop=1;jettySize=auto;html=1;exitX=0.25;exitY=1;exitDx=0;exitDy=0;entryX=0.75;entryY=0;entryDx=0;entryDy=0;" edge="1" parent="WIyWlLk6GJQsqaUBKTNV-1" source="4HSFIuYmJezgne_DqFVH-26" target="4HSFIuYmJezgne_DqFVH-27">
          <mxGeometry relative="1" as="geometry" />
        </mxCell>
        <mxCell id="4HSFIuYmJezgne_DqFVH-45" value="Render player" style="edgeLabel;html=1;align=center;verticalAlign=middle;resizable=0;points=[];" vertex="1" connectable="0" parent="4HSFIuYmJezgne_DqFVH-43">
          <mxGeometry x="0.0222" y="2" relative="1" as="geometry">
            <mxPoint as="offset" />
          </mxGeometry>
        </mxCell>
        <mxCell id="4HSFIuYmJezgne_DqFVH-51" style="edgeStyle=orthogonalEdgeStyle;rounded=0;orthogonalLoop=1;jettySize=auto;html=1;exitX=1;exitY=0.5;exitDx=0;exitDy=0;entryX=0;entryY=0.75;entryDx=0;entryDy=0;" edge="1" parent="WIyWlLk6GJQsqaUBKTNV-1" source="4HSFIuYmJezgne_DqFVH-26" target="4HSFIuYmJezgne_DqFVH-24">
          <mxGeometry relative="1" as="geometry" />
        </mxCell>
        <mxCell id="4HSFIuYmJezgne_DqFVH-52" value="2d vector and mouse pos&lt;br&gt;" style="edgeLabel;html=1;align=center;verticalAlign=middle;resizable=0;points=[];" vertex="1" connectable="0" parent="4HSFIuYmJezgne_DqFVH-51">
          <mxGeometry x="-0.5768" y="1" relative="1" as="geometry">
            <mxPoint x="24" y="1" as="offset" />
          </mxGeometry>
        </mxCell>
        <mxCell id="4HSFIuYmJezgne_DqFVH-58" style="edgeStyle=orthogonalEdgeStyle;rounded=0;orthogonalLoop=1;jettySize=auto;html=1;exitX=0.75;exitY=0;exitDx=0;exitDy=0;entryX=0;entryY=0.5;entryDx=0;entryDy=0;" edge="1" parent="WIyWlLk6GJQsqaUBKTNV-1" source="4HSFIuYmJezgne_DqFVH-26" target="4HSFIuYmJezgne_DqFVH-57">
          <mxGeometry relative="1" as="geometry">
            <Array as="points">
              <mxPoint x="444" y="240" />
              <mxPoint x="490" y="240" />
              <mxPoint x="490" y="210" />
              <mxPoint x="560" y="210" />
              <mxPoint x="560" y="170" />
            </Array>
          </mxGeometry>
        </mxCell>
        <mxCell id="4HSFIuYmJezgne_DqFVH-59" value="update x and y pos" style="edgeLabel;html=1;align=center;verticalAlign=middle;resizable=0;points=[];" vertex="1" connectable="0" parent="4HSFIuYmJezgne_DqFVH-58">
          <mxGeometry x="-0.0329" relative="1" as="geometry">
            <mxPoint as="offset" />
          </mxGeometry>
        </mxCell>
        <mxCell id="4HSFIuYmJezgne_DqFVH-26" value="Player.java" style="rounded=0;whiteSpace=wrap;html=1;" vertex="1" parent="WIyWlLk6GJQsqaUBKTNV-1">
          <mxGeometry x="354" y="250" width="120" height="60" as="geometry" />
        </mxCell>
        <mxCell id="4HSFIuYmJezgne_DqFVH-27" value="RenderManager.java" style="rounded=0;whiteSpace=wrap;html=1;" vertex="1" parent="WIyWlLk6GJQsqaUBKTNV-1">
          <mxGeometry x="190" y="400" width="120" height="60" as="geometry" />
        </mxCell>
        <mxCell id="4HSFIuYmJezgne_DqFVH-47" style="edgeStyle=orthogonalEdgeStyle;rounded=0;orthogonalLoop=1;jettySize=auto;html=1;exitX=0;exitY=0.75;exitDx=0;exitDy=0;entryX=1;entryY=0.75;entryDx=0;entryDy=0;" edge="1" parent="WIyWlLk6GJQsqaUBKTNV-1" source="4HSFIuYmJezgne_DqFVH-39" target="4HSFIuYmJezgne_DqFVH-27">
          <mxGeometry relative="1" as="geometry" />
        </mxCell>
        <mxCell id="4HSFIuYmJezgne_DqFVH-48" value="Render items" style="edgeLabel;html=1;align=center;verticalAlign=middle;resizable=0;points=[];" vertex="1" connectable="0" parent="4HSFIuYmJezgne_DqFVH-47">
          <mxGeometry x="-0.2175" y="2" relative="1" as="geometry">
            <mxPoint as="offset" />
          </mxGeometry>
        </mxCell>
        <mxCell id="4HSFIuYmJezgne_DqFVH-39" value="Items.java" style="rounded=0;whiteSpace=wrap;html=1;" vertex="1" parent="WIyWlLk6GJQsqaUBKTNV-1">
          <mxGeometry x="480" y="400" width="120" height="60" as="geometry" />
        </mxCell>
        <mxCell id="4HSFIuYmJezgne_DqFVH-57" value="Game_update.java" style="whiteSpace=wrap;html=1;" vertex="1" parent="WIyWlLk6GJQsqaUBKTNV-1">
          <mxGeometry x="600" y="140" width="120" height="60" as="geometry" />
        </mxCell>
        <mxCell id="4HSFIuYmJezgne_DqFVH-60" value="debug_text.java" style="rounded=0;whiteSpace=wrap;html=1;" vertex="1" parent="WIyWlLk6GJQsqaUBKTNV-1">
          <mxGeometry x="20" y="250" width="120" height="60" as="geometry" />
        </mxCell>
        <mxCell id="4HSFIuYmJezgne_DqFVH-62" style="edgeStyle=orthogonalEdgeStyle;rounded=0;orthogonalLoop=1;jettySize=auto;html=1;exitX=0.5;exitY=1;exitDx=0;exitDy=0;entryX=-0.004;entryY=0.574;entryDx=0;entryDy=0;entryPerimeter=0;" edge="1" parent="WIyWlLk6GJQsqaUBKTNV-1" source="4HSFIuYmJezgne_DqFVH-60" target="4HSFIuYmJezgne_DqFVH-27">
          <mxGeometry relative="1" as="geometry" />
        </mxCell>
        <mxCell id="4HSFIuYmJezgne_DqFVH-63" value="Render text" style="edgeLabel;html=1;align=center;verticalAlign=middle;resizable=0;points=[];" vertex="1" connectable="0" parent="4HSFIuYmJezgne_DqFVH-62">
          <mxGeometry x="-0.2146" y="-1" relative="1" as="geometry">
            <mxPoint as="offset" />
          </mxGeometry>
        </mxCell>
      </root>
    </mxGraphModel>
  </diagram>
</mxfile>
